<mxfile host="app.diagrams.net" modified="2023-04-10T12:05:36.543Z" agent="Mozilla/5.0 (Windows NT 10.0; Win64; x64) AppleWebKit/537.36 (KHTML, like Gecko) Chrome/111.0.0.0 Safari/537.36" etag="cIG7X5SuTnpnMvTnO_LR" version="21.1.4" type="github">
  <diagram id="C5RBs43oDa-KdzZeNtuy" name="Page-1">
    <mxGraphModel dx="1674" dy="856" grid="1" gridSize="10" guides="1" tooltips="1" connect="1" arrows="1" fold="1" page="1" pageScale="1" pageWidth="827" pageHeight="1169" math="0" shadow="0">
      <root>
        <mxCell id="WIyWlLk6GJQsqaUBKTNV-0" />
        <mxCell id="WIyWlLk6GJQsqaUBKTNV-1" parent="WIyWlLk6GJQsqaUBKTNV-0" />
        <mxCell id="5s6abOLHgdyf84tz-Ydi-9" style="edgeStyle=none;curved=1;rounded=0;orthogonalLoop=1;jettySize=auto;html=1;entryX=0.442;entryY=0.033;entryDx=0;entryDy=0;entryPerimeter=0;fontSize=12;startSize=8;endSize=8;" edge="1" parent="WIyWlLk6GJQsqaUBKTNV-1" source="5s6abOLHgdyf84tz-Ydi-0" target="5s6abOLHgdyf84tz-Ydi-8">
          <mxGeometry relative="1" as="geometry" />
        </mxCell>
        <mxCell id="5s6abOLHgdyf84tz-Ydi-0" value="ALUR SMA" style="rounded=0;whiteSpace=wrap;html=1;fontSize=16;" vertex="1" parent="WIyWlLk6GJQsqaUBKTNV-1">
          <mxGeometry x="330" y="70" width="120" height="60" as="geometry" />
        </mxCell>
        <mxCell id="5s6abOLHgdyf84tz-Ydi-21" style="edgeStyle=none;curved=1;rounded=0;orthogonalLoop=1;jettySize=auto;html=1;entryX=0.5;entryY=0;entryDx=0;entryDy=0;fontSize=12;startSize=8;endSize=8;" edge="1" parent="WIyWlLk6GJQsqaUBKTNV-1" source="5s6abOLHgdyf84tz-Ydi-1" target="5s6abOLHgdyf84tz-Ydi-4">
          <mxGeometry relative="1" as="geometry" />
        </mxCell>
        <mxCell id="5s6abOLHgdyf84tz-Ydi-22" style="edgeStyle=none;curved=1;rounded=0;orthogonalLoop=1;jettySize=auto;html=1;entryX=0.5;entryY=0;entryDx=0;entryDy=0;fontSize=12;startSize=8;endSize=8;" edge="1" parent="WIyWlLk6GJQsqaUBKTNV-1" source="5s6abOLHgdyf84tz-Ydi-1" target="5s6abOLHgdyf84tz-Ydi-19">
          <mxGeometry relative="1" as="geometry" />
        </mxCell>
        <mxCell id="5s6abOLHgdyf84tz-Ydi-1" value="supervisi" style="rounded=0;whiteSpace=wrap;html=1;fontSize=16;" vertex="1" parent="WIyWlLk6GJQsqaUBKTNV-1">
          <mxGeometry x="130" y="340" width="120" height="60" as="geometry" />
        </mxCell>
        <mxCell id="5s6abOLHgdyf84tz-Ydi-24" style="edgeStyle=none;curved=1;rounded=0;orthogonalLoop=1;jettySize=auto;html=1;fontSize=12;startSize=8;endSize=8;" edge="1" parent="WIyWlLk6GJQsqaUBKTNV-1" source="5s6abOLHgdyf84tz-Ydi-4" target="5s6abOLHgdyf84tz-Ydi-23">
          <mxGeometry relative="1" as="geometry" />
        </mxCell>
        <mxCell id="5s6abOLHgdyf84tz-Ydi-4" value="supervisor" style="rounded=0;whiteSpace=wrap;html=1;fontSize=16;" vertex="1" parent="WIyWlLk6GJQsqaUBKTNV-1">
          <mxGeometry x="180" y="460" width="120" height="60" as="geometry" />
        </mxCell>
        <mxCell id="5s6abOLHgdyf84tz-Ydi-16" style="edgeStyle=none;curved=1;rounded=0;orthogonalLoop=1;jettySize=auto;html=1;entryX=0.5;entryY=0;entryDx=0;entryDy=0;fontSize=12;startSize=8;endSize=8;" edge="1" parent="WIyWlLk6GJQsqaUBKTNV-1" source="5s6abOLHgdyf84tz-Ydi-7" target="5s6abOLHgdyf84tz-Ydi-15">
          <mxGeometry relative="1" as="geometry" />
        </mxCell>
        <mxCell id="5s6abOLHgdyf84tz-Ydi-18" style="edgeStyle=none;curved=1;rounded=0;orthogonalLoop=1;jettySize=auto;html=1;fontSize=12;startSize=8;endSize=8;" edge="1" parent="WIyWlLk6GJQsqaUBKTNV-1" source="5s6abOLHgdyf84tz-Ydi-7" target="5s6abOLHgdyf84tz-Ydi-17">
          <mxGeometry relative="1" as="geometry" />
        </mxCell>
        <mxCell id="5s6abOLHgdyf84tz-Ydi-7" value="alat bongkar muat" style="rounded=0;whiteSpace=wrap;html=1;fontSize=16;" vertex="1" parent="WIyWlLk6GJQsqaUBKTNV-1">
          <mxGeometry x="360" y="330" width="140" height="60" as="geometry" />
        </mxCell>
        <mxCell id="5s6abOLHgdyf84tz-Ydi-10" style="edgeStyle=none;curved=1;rounded=0;orthogonalLoop=1;jettySize=auto;html=1;entryX=0.5;entryY=0;entryDx=0;entryDy=0;fontSize=12;startSize=8;endSize=8;" edge="1" parent="WIyWlLk6GJQsqaUBKTNV-1" source="5s6abOLHgdyf84tz-Ydi-8" target="5s6abOLHgdyf84tz-Ydi-1">
          <mxGeometry relative="1" as="geometry" />
        </mxCell>
        <mxCell id="5s6abOLHgdyf84tz-Ydi-11" value="pakai ?" style="edgeLabel;html=1;align=center;verticalAlign=middle;resizable=0;points=[];fontSize=16;" vertex="1" connectable="0" parent="5s6abOLHgdyf84tz-Ydi-10">
          <mxGeometry x="-0.1993" y="1" relative="1" as="geometry">
            <mxPoint as="offset" />
          </mxGeometry>
        </mxCell>
        <mxCell id="5s6abOLHgdyf84tz-Ydi-12" style="edgeStyle=none;curved=1;rounded=0;orthogonalLoop=1;jettySize=auto;html=1;entryX=0.5;entryY=0;entryDx=0;entryDy=0;fontSize=12;startSize=8;endSize=8;" edge="1" parent="WIyWlLk6GJQsqaUBKTNV-1" source="5s6abOLHgdyf84tz-Ydi-8" target="5s6abOLHgdyf84tz-Ydi-7">
          <mxGeometry relative="1" as="geometry" />
        </mxCell>
        <mxCell id="5s6abOLHgdyf84tz-Ydi-14" style="edgeStyle=none;curved=1;rounded=0;orthogonalLoop=1;jettySize=auto;html=1;entryX=0.5;entryY=0;entryDx=0;entryDy=0;fontSize=12;startSize=8;endSize=8;" edge="1" parent="WIyWlLk6GJQsqaUBKTNV-1" source="5s6abOLHgdyf84tz-Ydi-8" target="5s6abOLHgdyf84tz-Ydi-13">
          <mxGeometry relative="1" as="geometry" />
        </mxCell>
        <mxCell id="5s6abOLHgdyf84tz-Ydi-8" value="order penunjukkan barang pemilik barang" style="rounded=0;whiteSpace=wrap;html=1;fontSize=16;" vertex="1" parent="WIyWlLk6GJQsqaUBKTNV-1">
          <mxGeometry x="270" y="190" width="250" height="60" as="geometry" />
        </mxCell>
        <mxCell id="5s6abOLHgdyf84tz-Ydi-13" value="administrasi" style="rounded=0;whiteSpace=wrap;html=1;fontSize=16;" vertex="1" parent="WIyWlLk6GJQsqaUBKTNV-1">
          <mxGeometry x="590" y="330" width="120" height="60" as="geometry" />
        </mxCell>
        <mxCell id="5s6abOLHgdyf84tz-Ydi-15" value="alat" style="rounded=0;whiteSpace=wrap;html=1;fontSize=16;" vertex="1" parent="WIyWlLk6GJQsqaUBKTNV-1">
          <mxGeometry x="380" y="440" width="120" height="60" as="geometry" />
        </mxCell>
        <mxCell id="5s6abOLHgdyf84tz-Ydi-17" value="tempat" style="rounded=0;whiteSpace=wrap;html=1;fontSize=16;" vertex="1" parent="WIyWlLk6GJQsqaUBKTNV-1">
          <mxGeometry x="540" y="440" width="120" height="60" as="geometry" />
        </mxCell>
        <mxCell id="5s6abOLHgdyf84tz-Ydi-19" value="buruh" style="rounded=0;whiteSpace=wrap;html=1;fontSize=16;" vertex="1" parent="WIyWlLk6GJQsqaUBKTNV-1">
          <mxGeometry x="40" y="460" width="120" height="60" as="geometry" />
        </mxCell>
        <mxCell id="5s6abOLHgdyf84tz-Ydi-23" value="timesheet" style="rounded=0;whiteSpace=wrap;html=1;fontSize=16;" vertex="1" parent="WIyWlLk6GJQsqaUBKTNV-1">
          <mxGeometry x="180" y="540" width="120" height="60" as="geometry" />
        </mxCell>
      </root>
    </mxGraphModel>
  </diagram>
</mxfile>
